<svg xmlns="http://www.w3.org/2000/svg" xmlns:xlink="http://www.w3.org/1999/xlink" width="40" zoomAndPan="magnify" viewBox="0 0 30 30.000001" height="40" preserveAspectRatio="xMidYMid meet" version="1.0"><defs><clipPath id="62aa8d7de2"><path d="M 7 0.277344 L 12 0.277344 L 12 7 L 7 7 Z M 7 0.277344 " clip-rule="nonzero"/></clipPath><clipPath id="221d50ff25"><path d="M 18 0.277344 L 23 0.277344 L 23 7 L 18 7 Z M 18 0.277344 " clip-rule="nonzero"/></clipPath><clipPath id="65c93c226c"><path d="M 3 3 L 27 3 L 27 28.585938 L 3 28.585938 Z M 3 3 " clip-rule="nonzero"/></clipPath><clipPath id="e1cbce0c9d"><path d="M 3 17 L 27 17 L 27 28.585938 L 3 28.585938 Z M 3 17 " clip-rule="nonzero"/></clipPath><clipPath id="ed0e5dc7ab"><path d="M 1.597656 3 L 16 3 L 16 13 L 1.597656 13 Z M 1.597656 3 " clip-rule="nonzero"/></clipPath><clipPath id="5714732def"><path d="M 17 3 L 28.453125 3 L 28.453125 12 L 17 12 Z M 17 3 " clip-rule="nonzero"/></clipPath></defs><g clip-path="url(#62aa8d7de2)"><path fill="#fbcaab" d="M 8.546875 6.863281 C 8.546875 6.863281 6.9375 1.238281 8.953125 0.753906 C 10.933594 0.277344 11.824219 5.90625 11.824219 5.90625 L 8.546875 6.863281 " fill-opacity="1" fill-rule="nonzero"/></g><g clip-path="url(#221d50ff25)"><path fill="#fbcaab" d="M 21.507812 6.863281 C 21.507812 6.863281 23.113281 1.238281 21.097656 0.753906 C 19.117188 0.277344 18.230469 5.90625 18.230469 5.90625 L 21.507812 6.863281 " fill-opacity="1" fill-rule="nonzero"/></g><g clip-path="url(#65c93c226c)"><path fill="#ffffff" d="M 26.835938 18.058594 C 26.664062 10.847656 22.832031 3.082031 15.027344 3.082031 C 7.222656 3.082031 3.386719 10.847656 3.214844 18.058594 C 3.035156 25.535156 5.90625 28.585938 15.027344 28.585938 C 24.148438 28.585938 27.015625 25.535156 26.835938 18.058594 " fill-opacity="1" fill-rule="nonzero"/></g><g clip-path="url(#e1cbce0c9d)"><path fill="#fbc7d2" d="M 26.726562 20.910156 C 24.476562 18.738281 20.75 17.765625 15.027344 17.765625 C 9.304688 17.765625 5.578125 18.738281 3.324219 20.910156 C 3.949219 26.320312 7.164062 28.585938 15.027344 28.585938 C 22.886719 28.585938 26.101562 26.320312 26.726562 20.910156 " fill-opacity="1" fill-rule="nonzero"/></g><path fill="#3d3e48" d="M 11.046875 14.566406 C 11.046875 15.1875 10.644531 15.6875 10.148438 15.6875 C 9.652344 15.6875 9.25 15.1875 9.25 14.566406 C 9.25 13.949219 9.652344 13.449219 10.148438 13.449219 C 10.644531 13.449219 11.046875 13.949219 11.046875 14.566406 " fill-opacity="1" fill-rule="nonzero"/><path fill="#3d3e48" d="M 19.007812 14.566406 C 19.007812 15.1875 19.410156 15.6875 19.90625 15.6875 C 20.402344 15.6875 20.804688 15.1875 20.804688 14.566406 C 20.804688 13.949219 20.402344 13.449219 19.90625 13.449219 C 19.410156 13.449219 19.007812 13.949219 19.007812 14.566406 " fill-opacity="1" fill-rule="nonzero"/><path fill="#f578a0" d="M 11.875 23.15625 C 11.574219 23.15625 11.332031 22.914062 11.332031 22.617188 L 11.332031 21.945312 C 11.332031 21.648438 11.574219 21.40625 11.875 21.40625 C 12.171875 21.40625 12.417969 21.648438 12.417969 21.945312 L 12.417969 22.617188 C 12.417969 22.914062 12.171875 23.15625 11.875 23.15625 " fill-opacity="1" fill-rule="nonzero"/><path fill="#f578a0" d="M 18.179688 23.15625 C 17.878906 23.15625 17.636719 22.914062 17.636719 22.617188 L 17.636719 21.945312 C 17.636719 21.648438 17.878906 21.40625 18.179688 21.40625 C 18.480469 21.40625 18.722656 21.648438 18.722656 21.945312 L 18.722656 22.617188 C 18.722656 22.914062 18.480469 23.15625 18.179688 23.15625 " fill-opacity="1" fill-rule="nonzero"/><g clip-path="url(#ed0e5dc7ab)"><path fill="#4a4c5a" d="M 8.277344 5.582031 C 7.597656 5.007812 6.578125 4.546875 5.394531 4.332031 C 3.089844 3.917969 2.074219 4.792969 1.84375 6.054688 C 1.613281 7.316406 2.257812 8.488281 4.558594 8.902344 C 4.898438 8.960938 5.226562 8.996094 5.550781 9.011719 C 4.996094 10.003906 4.542969 11.074219 4.1875 12.1875 C 5.21875 12.523438 6.554688 12.65625 7.9375 11.972656 C 10.917969 10.503906 10.128906 8.679688 11.824219 7.925781 C 13.308594 7.261719 15.851562 6.296875 14.800781 3.085938 C 12.171875 3.136719 10.003906 4.078125 8.277344 5.582031 " fill-opacity="1" fill-rule="nonzero"/></g><g clip-path="url(#5714732def)"><path fill="#4a4c5a" d="M 28.210938 6.054688 C 27.980469 4.792969 26.960938 3.917969 24.660156 4.332031 C 23.472656 4.546875 22.453125 5.007812 21.773438 5.582031 C 20.691406 4.636719 19.4375 3.917969 18 3.496094 C 17.136719 6.726562 16.890625 11.0625 21.472656 11.722656 C 23.03125 11.945312 24.433594 11.878906 25.679688 11.628906 C 25.355469 10.714844 24.964844 9.835938 24.503906 9.011719 C 24.824219 8.996094 25.15625 8.960938 25.492188 8.902344 C 27.796875 8.488281 28.441406 7.316406 28.210938 6.054688 " fill-opacity="1" fill-rule="nonzero"/></g><path fill="#fbc7d2" d="M 6.390625 7.679688 C 6.664062 7.292969 6.960938 6.925781 7.273438 6.578125 C 7.378906 6.457031 7.359375 6.269531 7.226562 6.175781 C 6.785156 5.867188 6.132812 5.601562 5.382812 5.46875 C 3.917969 5.207031 3.292969 5.640625 3.175781 6.292969 C 3.054688 6.945312 3.488281 7.570312 4.949219 7.832031 C 5.277344 7.890625 5.597656 7.921875 5.898438 7.925781 C 6.09375 7.925781 6.277344 7.839844 6.390625 7.679688 " fill-opacity="1" fill-rule="nonzero"/><path fill="#fbc7d2" d="M 23.664062 7.679688 C 23.386719 7.292969 23.09375 6.925781 22.78125 6.578125 C 22.675781 6.457031 22.695312 6.269531 22.824219 6.175781 C 23.265625 5.867188 23.917969 5.601562 24.671875 5.46875 C 26.132812 5.207031 26.757812 5.640625 26.878906 6.292969 C 26.996094 6.945312 26.566406 7.570312 25.101562 7.832031 C 24.773438 7.890625 24.453125 7.921875 24.15625 7.925781 C 23.960938 7.925781 23.773438 7.839844 23.664062 7.679688 " fill-opacity="1" fill-rule="nonzero"/></svg>